<?xml version="1.0" encoding="utf-8"?>
<!-- Generator: Adobe Illustrator 23.0.2, SVG Export Plug-In . SVG Version: 6.00 Build 0)  -->
<svg version="1.1" id="Capa_1" xmlns="http://www.w3.org/2000/svg" xmlns:xlink="http://www.w3.org/1999/xlink" x="0px" y="0px"
	 viewBox="0 0 1920 1080" style="enable-background:new 0 0 1920 1080;" xml:space="preserve">
<style type="text/css">
	.st0{fill:#E9FBFF;}
	.st1{opacity:0.85;fill:none;}
	.st2{fill:none;}
	.st3{fill:#019EE4;}
	.st4{fill:url(#SVGID_1_);}
	.st5{fill:url(#SVGID_2_);}
	.st6{fill:url(#SVGID_3_);}
	.st7{fill:url(#SVGID_4_);}
	.st8{fill:url(#SVGID_5_);}
	.st9{fill:url(#SVGID_6_);}
	.st10{fill:url(#SVGID_7_);}
	.st11{fill:url(#SVGID_8_);}
	.st12{fill:url(#SVGID_9_);}
	.st13{fill:url(#SVGID_10_);}
	.st14{fill:url(#SVGID_11_);}
	.st15{fill:url(#SVGID_12_);}
	.st16{fill:url(#SVGID_13_);}
	.st17{fill:none;stroke:#000000;stroke-miterlimit:10;}
	.st18{fill:url(#SVGID_14_);}
	.st19{fill:url(#SVGID_15_);}
	.st20{fill:url(#SVGID_16_);}
	.st21{fill:url(#SVGID_17_);}
	.st22{fill:url(#SVGID_18_);}
</style>
<g>
	<rect x="0" transform="matrix(-1 -4.489488e-11 4.489488e-11 -1 1920 1080)" class="st0" width="1920" height="1080"/>
</g>
<path class="st1" d="M1920,517.59v40.77v0c82.78,47.13,140.06,131.63,151.64,228.56c24.18,202.35-141.36,364.56-333.04,348.43
	c-56.84-4.78-108.79-24.66-152.25-55.34h-23.28h-12.29v220.96h571.86V488.8L1920,517.59z"/>
<path class="st1" d="M1938.56,972.42c21.88-27.5,39.04-57.04,46.75-90.63c12.73-54.36,6.03-110.36-22.4-160.03
	c-10.13-17.69-23.65-34.83-38.31-48.9c-1.5-1.44-3.04-2.84-4.61-4.21v322.64C1926.46,985.4,1932.66,979.11,1938.56,972.42z"/>
<path class="st2" d="M1300.65,624.78l0.8-0.05C1301.15,624.72,1300.88,624.73,1300.65,624.78z"/>
<path class="st3" d="M1845.32,383.16c-181-57-357.78,17.25-450.49,155.17c9.96,17.85,19.89,35.71,29.87,53.54
	c0.94,1.68,22.23-13.71,24.9-15.54c39.23-26.81,80.64-57.79,127.16-70.33c17.07-4.6,39.29-4.96,56.91-5.42
	c2.19-0.84,4.39-1.65,6.61-2.43c43.68-15.4,91.05-18.83,136.65-11.14c23.37,3.94,46.03,10.84,67.85,20.04
	c19.02,8.02,35.55,20.31,52.25,31.59c7.99,5.4,15.71,11.2,22.95,17.56V415.75C1896.61,402.43,1871.63,391.45,1845.32,383.16z"/>
<path class="st3" d="M1920,967.04c-49.62,45.28-111.6,71.64-177.62,73.21c-116.48,1.11-244.12-71.53-273.24-191.24
	c-1.11-4.34-38.64-32.17-67.15-43.29c-28.51-11.12-73.91-52.07-73.91-52.07c-1.56,133.15,64.01,253.61,167.07,326.35H1920V967.04z"
	/>
<linearGradient id="SVGID_1_" gradientUnits="userSpaceOnUse" x1="449.9603" y1="983.3065" x2="545.171" y2="818.3967" gradientTransform="matrix(-0.9965 -0.0839 -0.0839 0.9965 2060.9875 -21.2977)">
	<stop  offset="0" style="stop-color:#FFFFFF"/>
	<stop  offset="0" style="stop-color:#0094D4"/>
	<stop  offset="0.3934" style="stop-color:#0684D1"/>
	<stop  offset="0.7284" style="stop-color:#0061AE"/>
	<stop  offset="0.9492" style="stop-color:#0C45A0"/>
</linearGradient>
<path class="st4" d="M1477.84,750.9l-19.07,15.46l-18.71,10.51l-10.08,4.49l-15.34,2.92l-7.71-0.58
	c9.37,4.86,27.92,16.24,27.92,16.24l19.26,15.73c7.76,6.68,15.93,12.73,22.65,20.52c6.13,7.11,11.33,15.24,15.39,23.55
	c0,0.01,12.29,25.15,12.29,25.15l10.69,19.72c3.17,5.65,6.73,15.3,14.35,15.85c1.04,0.07,2.17-0.13,2.9-0.88
	c0.56-0.57,0.81-1.37,1.03-2.14c4.57-16.03,1.96-31.17,0.8-47.39l-4.43-31.25c0,0-5.31-26.03-6.62-31.43
	c-1.31-5.4-8-30.67-11.54-41.11c-2.94-8.68-11.01-31.32-13.65-38.73l-4.53,6.38L1477.84,750.9z"/>
<linearGradient id="SVGID_2_" gradientUnits="userSpaceOnUse" x1="664.1949" y1="804.7178" x2="497.0801" y2="515.2664" gradientTransform="matrix(-0.9965 -0.0839 -0.0839 0.9965 2060.9875 -21.2977)">
	<stop  offset="0" style="stop-color:#FFFFFF"/>
	<stop  offset="0" style="stop-color:#0AACD4"/>
	<stop  offset="0.2462" style="stop-color:#00AEE3"/>
	<stop  offset="0.5964" style="stop-color:#018BC7"/>
	<stop  offset="0.7386" style="stop-color:#187CC1"/>
	<stop  offset="0.934" style="stop-color:#4F64AE"/>
</linearGradient>
<path class="st5" d="M1332.09,724.01c0.09,0.03,0.19,0.05,0.29,0.07l-0.12-0.18L1332.09,724.01z"/>
<linearGradient id="SVGID_3_" gradientUnits="userSpaceOnUse" x1="638.5804" y1="819.5064" x2="471.4656" y2="530.055" gradientTransform="matrix(-0.9965 -0.0839 -0.0839 0.9965 2060.9875 -21.2977)">
	<stop  offset="0" style="stop-color:#FFFFFF"/>
	<stop  offset="0" style="stop-color:#0AACD4"/>
	<stop  offset="0.2462" style="stop-color:#00AEE3"/>
	<stop  offset="0.5964" style="stop-color:#018BC7"/>
	<stop  offset="0.7386" style="stop-color:#187CC1"/>
	<stop  offset="0.934" style="stop-color:#4F64AE"/>
</linearGradient>
<path class="st6" d="M1357.23,723.26c4.16-0.89,17.7-7.39,17.7-7.39l19.3-9.04l20.33-15.16l31.59-25.17l28.92-25.33l17.74-16.93
	l21.21-18.51l31.88-27.26l23.22-17.2l22.23-13.5l21.62-8.75l11.96-3.67l9.92-2.81l3.97-1.12c-12.38-8-29.76-3.92-43.77-3.59
	c-16.35,0.39-53.7,14.45-53.7,14.45s-45.38,20.44-64.89,37.32c-19.5,16.88-64.09,38.27-64.09,38.27s-24.94,18.63-44.87,19.6
	c-19.93,0.97-29.42-1.59-40.58-5.18c-10.38-3.33-21.44-7.48-25.47-7.55l-0.8,0.05c2.03,7.66,5.12,15.07,6.9,22.78
	c2.31,9.97,3.33,20.24,6.52,30c5.1,15.61,11.41,30.87,18.17,45.83C1335.05,723.49,1353.39,724.09,1357.23,723.26z"/>
<linearGradient id="SVGID_4_" gradientUnits="userSpaceOnUse" x1="662.4836" y1="805.7059" x2="495.3687" y2="516.2545" gradientTransform="matrix(-0.9965 -0.0839 -0.0839 0.9965 2060.9875 -21.2977)">
	<stop  offset="0" style="stop-color:#FFFFFF"/>
	<stop  offset="0" style="stop-color:#0AACD4"/>
	<stop  offset="0.2462" style="stop-color:#00AEE3"/>
	<stop  offset="0.5964" style="stop-color:#018BC7"/>
	<stop  offset="0.7386" style="stop-color:#187CC1"/>
	<stop  offset="0.934" style="stop-color:#4F64AE"/>
</linearGradient>
<path class="st7" d="M1333.75,726.35l-0.2-0.6l-0.4-0.56C1333.35,725.57,1333.55,725.96,1333.75,726.35z"/>
<linearGradient id="SVGID_5_" gradientUnits="userSpaceOnUse" x1="669.2671" y1="815.0435" x2="496.2133" y2="515.3055" gradientTransform="matrix(-0.9965 -0.0839 -0.0839 0.9965 2060.9875 -21.2977)">
	<stop  offset="0" style="stop-color:#FFFFFF"/>
	<stop  offset="0" style="stop-color:#00A3D8"/>
	<stop  offset="0.1497" style="stop-color:#0195D9"/>
	<stop  offset="0.3274" style="stop-color:#0182C8"/>
	<stop  offset="0.3782" style="stop-color:#017EC5"/>
	<stop  offset="0.533" style="stop-color:#0067B1"/>
</linearGradient>
<path class="st8" d="M1332.38,724.09l0.78,1.09c-0.18-0.34-0.35-0.68-0.53-1.03C1332.55,724.13,1332.46,724.11,1332.38,724.09z"/>
<linearGradient id="SVGID_6_" gradientUnits="userSpaceOnUse" x1="670.2173" y1="814.4949" x2="497.1635" y2="514.7568" gradientTransform="matrix(-0.9965 -0.0839 -0.0839 0.9965 2060.9875 -21.2977)">
	<stop  offset="0" style="stop-color:#FFFFFF"/>
	<stop  offset="0" style="stop-color:#00A3D8"/>
	<stop  offset="0.1497" style="stop-color:#0195D9"/>
	<stop  offset="0.3274" style="stop-color:#0182C8"/>
	<stop  offset="0.3782" style="stop-color:#017EC5"/>
	<stop  offset="0.533" style="stop-color:#0067B1"/>
</linearGradient>
<path class="st9" d="M1332.3,723.52c-0.02-0.04-0.04-0.09-0.06-0.13c-0.23-0.01-0.37-0.01-0.37-0.01l0.38,0.54l0.19-0.12
	C1332.4,723.7,1332.35,723.61,1332.3,723.52z"/>
<linearGradient id="SVGID_7_" gradientUnits="userSpaceOnUse" x1="605.5043" y1="851.8569" x2="432.4504" y2="552.1189" gradientTransform="matrix(-0.9965 -0.0839 -0.0839 0.9965 2060.9875 -21.2977)">
	<stop  offset="0" style="stop-color:#FFFFFF"/>
	<stop  offset="0" style="stop-color:#00A3D8"/>
	<stop  offset="0.1497" style="stop-color:#0195D9"/>
	<stop  offset="0.3274" style="stop-color:#0182C8"/>
	<stop  offset="0.3782" style="stop-color:#017EC5"/>
	<stop  offset="0.533" style="stop-color:#0067B1"/>
</linearGradient>
<path class="st10" d="M1589.02,549.72c-13.62,7.32-26.92,17.08-39.2,26.5c-19.63,15.04-37.75,32.48-56.51,48.68l-0.28-0.02
	c-30.91,30.56-63.57,57.06-98.58,82.6c-15.76,11.49-34.93,18.62-54.56,17.71c-2.3-0.11-4.6-0.34-6.82-0.91l0.48,1.48l11,15.52
	l13.63,14.32l9.14,8.09l11.11,7.33l10.31,5.68l18.11,7.02l0.07,0.01c-2.85-1.48-4.86-2.36-5.23-2.12l0.67-0.4
	c1.08,0.21,2.17,0.41,3.28,0.59c1.2,0.2,2.34,0.33,3.46,0.42c6.97,0.69,12.55-0.6,19.65-2.76c4.7-1.43,29.82-13.66,41.76-24.57
	c7.32-6.68,13.34-13.61,19.99-20.93c2.33-2.56,4.61-5.31,6.84-8.14c0.15,0.41,0.36,1,0.62,1.74l10.23-14.39l15.59-23.23l15.18-24.9
	l19.36-32.42c0,0,23.16-32.17,26.28-36.82c3.12-4.65,18.02-19.75,22.36-25.93c4.34-6.18,25.24-21.33,31.42-27.35
	c6.18-6.02,0.95-11.25,0.95-11.25l-0.53,0.15c0.25,0.16,0.5,0.32,0.74,0.49C1622.39,536.77,1604.85,541.21,1589.02,549.72z"/>
<linearGradient id="SVGID_8_" gradientUnits="userSpaceOnUse" x1="451.541" y1="984.2191" x2="546.7517" y2="819.3094" gradientTransform="matrix(-0.9965 -0.0839 -0.0839 0.9965 2060.9875 -21.2977)">
	<stop  offset="0" style="stop-color:#FFFFFF"/>
	<stop  offset="0" style="stop-color:#0094D4"/>
	<stop  offset="0.3934" style="stop-color:#0684D1"/>
	<stop  offset="0.7284" style="stop-color:#0061AE"/>
	<stop  offset="0.9492" style="stop-color:#0C45A0"/>
</linearGradient>
<path class="st11" d="M1490.53,733.95c-6.65,7.32-12.68,14.25-19.99,20.93c-11.94,10.9-37.06,23.14-41.76,24.57
	c-7.1,2.16-12.68,3.45-19.65,2.76c-1.12-0.09-2.26-0.22-3.46-0.42c-1.11-0.18-2.2-0.38-3.28-0.59l-0.67,0.4
	c0.36-0.24,2.37,0.64,5.23,2.12l7.71,0.58l15.34-2.92l10.08-4.49l18.71-10.51l19.07-15.46l15.62-16.97l4.53-6.38
	c-0.26-0.74-0.48-1.34-0.62-1.74C1495.14,728.63,1492.86,731.38,1490.53,733.95z"/>
<linearGradient id="SVGID_9_" gradientUnits="userSpaceOnUse" x1="571.2206" y1="871.6506" x2="398.1667" y2="571.9127" gradientTransform="matrix(-0.9965 -0.0839 -0.0839 0.9965 2060.9875 -21.2977)">
	<stop  offset="0" style="stop-color:#FFFFFF"/>
	<stop  offset="0" style="stop-color:#00A3D8"/>
	<stop  offset="0.1497" style="stop-color:#0195D9"/>
	<stop  offset="0.3274" style="stop-color:#0182C8"/>
	<stop  offset="0.3782" style="stop-color:#017EC5"/>
	<stop  offset="0.533" style="stop-color:#0067B1"/>
</linearGradient>
<path class="st12" d="M1490.53,733.95c-6.65,7.32-12.68,14.25-19.99,20.93c-11.94,10.9-37.06,23.14-41.76,24.57
	c-7.1,2.16-12.68,3.45-19.65,2.76c-1.12-0.09-2.26-0.22-3.46-0.42c-1.11-0.18-2.2-0.38-3.28-0.59l-0.67,0.4
	c0.36-0.24,2.37,0.64,5.23,2.12l7.71,0.58l15.34-2.92l10.08-4.49l18.71-10.51l19.07-15.46l15.62-16.97l4.53-6.38
	c-0.26-0.74-0.48-1.34-0.62-1.74C1495.14,728.63,1492.86,731.38,1490.53,733.95z"/>
<linearGradient id="SVGID_10_" gradientUnits="userSpaceOnUse" x1="602.587" y1="840.2872" x2="435.4721" y2="550.8358" gradientTransform="matrix(-0.9965 -0.0839 -0.0839 0.9965 2060.9875 -21.2977)">
	<stop  offset="0" style="stop-color:#FFFFFF"/>
	<stop  offset="0" style="stop-color:#0AACD4"/>
	<stop  offset="0.2462" style="stop-color:#00AEE3"/>
	<stop  offset="0.5964" style="stop-color:#018BC7"/>
	<stop  offset="0.7386" style="stop-color:#187CC1"/>
	<stop  offset="0.934" style="stop-color:#4F64AE"/>
</linearGradient>
<path class="st13" d="M1624.93,535.34l-11.96,3.67l-21.62,8.75l-22.23,13.5l-23.22,17.2l-31.88,27.26l-21.21,18.51l-17.74,16.93
	l-28.92,25.33l-31.59,25.17l-20.33,15.16l-19.3,9.04c0,0-13.54,6.5-17.7,7.39c-3.84,0.82-22.17,0.22-24.98,0.13
	c0.02,0.04,0.04,0.09,0.06,0.13c0.04,0.1,0.1,0.18,0.14,0.28l-0.19,0.12l0.12,0.18c0.08,0.02,0.17,0.04,0.25,0.07
	c0.17,0.35,0.35,0.69,0.53,1.03l0.4,0.56l-0.48-1.48c2.22,0.57,4.52,0.8,6.82,0.91c19.63,0.91,38.8-6.22,54.56-17.71
	c35.01-25.54,67.67-52.03,98.58-82.6l0.28,0.02c18.76-16.21,36.89-33.64,56.51-48.68c12.28-9.41,25.58-19.17,39.2-26.5
	c15.83-8.51,33.37-12.95,50.54-17.82c-0.24-0.17-0.5-0.33-0.74-0.49l-3.97,1.12L1624.93,535.34z"/>
<linearGradient id="SVGID_11_" gradientUnits="userSpaceOnUse" x1="608.3261" y1="850.2278" x2="435.2723" y2="550.4897" gradientTransform="matrix(-0.9965 -0.0839 -0.0839 0.9965 2060.9875 -21.2977)">
	<stop  offset="0" style="stop-color:#FFFFFF"/>
	<stop  offset="0" style="stop-color:#00A3D8"/>
	<stop  offset="0.1497" style="stop-color:#0195D9"/>
	<stop  offset="0.3274" style="stop-color:#0182C8"/>
	<stop  offset="0.3782" style="stop-color:#017EC5"/>
	<stop  offset="0.533" style="stop-color:#0067B1"/>
</linearGradient>
<path class="st14" d="M1624.93,535.34l-11.96,3.67l-21.62,8.75l-22.23,13.5l-23.22,17.2l-31.88,27.26l-21.21,18.51l-17.74,16.93
	l-28.92,25.33l-31.59,25.17l-20.33,15.16l-19.3,9.04c0,0-13.54,6.5-17.7,7.39c-3.84,0.82-22.17,0.22-24.98,0.13
	c0.02,0.04,0.04,0.09,0.06,0.13c0.04,0.1,0.1,0.18,0.14,0.28l-0.19,0.12l0.12,0.18c0.08,0.02,0.17,0.04,0.25,0.07
	c0.17,0.35,0.35,0.69,0.53,1.03l0.4,0.56l-0.48-1.48c2.22,0.57,4.52,0.8,6.82,0.91c19.63,0.91,38.8-6.22,54.56-17.71
	c35.01-25.54,67.67-52.03,98.58-82.6l0.28,0.02c18.76-16.21,36.89-33.64,56.51-48.68c12.28-9.41,25.58-19.17,39.2-26.5
	c15.83-8.51,33.37-12.95,50.54-17.82c-0.24-0.17-0.5-0.33-0.74-0.49l-3.97,1.12L1624.93,535.34z"/>
<linearGradient id="SVGID_12_" gradientUnits="userSpaceOnUse" x1="726.9708" y1="620.5111" x2="708.1276" y2="727.3765" gradientTransform="matrix(-0.9965 -0.0839 -0.0839 0.9965 2060.9875 -21.2977)">
	<stop  offset="0" style="stop-color:#FFFFFF"/>
	<stop  offset="0" style="stop-color:#0094D4"/>
	<stop  offset="0.2462" style="stop-color:#0592E5"/>
	<stop  offset="0.5964" style="stop-color:#0274BF"/>
	<stop  offset="0.6269" style="stop-color:#0271BC"/>
	<stop  offset="0.934" style="stop-color:#0E4792"/>
</linearGradient>
<path class="st15" d="M1412.38,617.86c0,0-18.87-43.05-21.38-49.87c-2.51-6.83-14.55-21.07-23.78-26.7
	c-9.23-5.63-26.09-9.69-36.27-9.23c-10.18,0.47-21.61,5.24-31.5,7.49c-9.89,2.25-47.96,3.9-58.18,4.81
	c-10.22,0.9-70.3,2.02-70.3,2.02c-15.44,5.32,6.52,11.58,6.52,11.58s13.06,1.98,24.34,4.25c11.28,2.27,34.88,9.99,43.34,14.28
	c8.46,4.28,26.01,15.82,32.18,21.19c6.16,5.37,20.16,27.72,23.3,27.1c0.22-0.04,0.5-0.06,0.8-0.05L1412.38,617.86z"/>
<linearGradient id="SVGID_13_" gradientUnits="userSpaceOnUse" x1="663.5941" y1="609.1471" x2="644.7508" y2="716.0125" gradientTransform="matrix(-0.9965 -0.0839 -0.0839 0.9965 2060.9875 -21.2977)">
	<stop  offset="0" style="stop-color:#FFFFFF"/>
	<stop  offset="0" style="stop-color:#0094D4"/>
	<stop  offset="0.2462" style="stop-color:#0592E5"/>
	<stop  offset="0.5964" style="stop-color:#0274BF"/>
	<stop  offset="0.6269" style="stop-color:#0271BC"/>
	<stop  offset="0.934" style="stop-color:#0E4792"/>
</linearGradient>
<path class="st16" d="M1326.93,632.1c11.17,3.59,20.65,6.15,40.58,5.18c19.93-0.97,44.87-19.6,44.87-19.6l-110.92,6.87
	C1305.49,624.62,1316.55,628.76,1326.93,632.1z"/>
<g>
	<path class="st3" d="M1201.69,627.16c6.75,0.17,15.27,0.31,21.82,2.08c17.84,4.81,33.72,16.69,48.76,26.97
		c1.02,0.7,9.19,6.6,9.55,5.96c3.83-6.84,7.64-13.69,11.45-20.53c-35.55-52.88-103.33-81.35-172.73-59.49
		c-55.55,17.49-95.76,66.26-102.67,124.08c-11.8,98.8,69.02,177.99,162.6,170.12c79.43-6.68,139.31-73.68,138.39-152.15
		c0,0-17.41,15.7-28.34,19.97c-10.93,4.27-25.32,14.94-25.75,16.6c-11.17,45.9-60.11,73.75-104.77,73.32
		c-29.51-0.7-56.92-14.31-77.17-37.29c-10.68-13.43-19.06-27.85-22.83-44.25c-6.21-26.54-2.94-53.88,10.94-78.13
		c4.94-8.64,11.55-17.01,18.7-23.88c3.4-3.26,7.14-6.15,11.05-8.79c6.4-4.32,12.74-9.04,20.03-12.11
		c8.37-3.53,17.06-6.17,26.02-7.68c17.48-2.95,35.65-1.63,52.39,4.27C1200,626.53,1200.85,626.84,1201.69,627.16"/>
	<g>
		<path class="st17" d="M1253.79,713.53"/>
		<path class="st17" d="M1317.04,712.65"/>
		<path class="st17" d="M1290.12,735.01"/>
		
			<linearGradient id="SVGID_14_" gradientUnits="userSpaceOnUse" x1="1059.86" y1="901.9305" x2="1096.3657" y2="838.7006" gradientTransform="matrix(0.9965 -0.0839 0.0839 0.9965 110.2554 -21.2977)">
			<stop  offset="0" style="stop-color:#FFFFFF"/>
			<stop  offset="0" style="stop-color:#0094D4"/>
			<stop  offset="0.3934" style="stop-color:#0684D1"/>
			<stop  offset="0.7284" style="stop-color:#0061AE"/>
			<stop  offset="0.9492" style="stop-color:#0C45A0"/>
		</linearGradient>
		<path class="st18" d="M1264.24,724.66c-2.81-2.56-5.11-5.22-7.67-8.02c-0.89-0.98-1.77-2.04-2.62-3.12
			c-0.61,1.71-4.23,11.86-5.47,15.52c-1.35,4-3.92,13.69-4.42,15.76c-0.5,2.07-2.54,12.05-2.54,12.05l-1.7,11.98
			c-0.45,6.22-1.45,12.02,0.31,18.17c0.08,0.3,0.18,0.6,0.4,0.82c0.28,0.28,0.71,0.36,1.11,0.34c2.92-0.21,4.29-3.91,5.5-6.08
			l4.1-7.56c0,0,4.71-9.64,4.71-9.64c1.56-3.19,3.55-6.3,5.9-9.03c2.58-2.99,5.71-5.31,8.68-7.87l7.38-6.03
			c0,0,12.11-7.43,12.71-7.04l-0.26-0.15c-0.41,0.08-0.83,0.16-1.26,0.23c-0.46,0.08-0.9,0.13-1.33,0.16
			c-2.67,0.27-4.81-0.23-7.54-1.06C1278.45,733.53,1268.82,728.84,1264.24,724.66z"/>
		<g>
			<path class="st2" d="M1255.64,674.81"/>
			
				<linearGradient id="SVGID_15_" gradientUnits="userSpaceOnUse" x1="1131.427" y1="838.8615" x2="1067.3516" y2="727.8796" gradientTransform="matrix(0.9965 -0.0839 0.0839 0.9965 110.2554 -21.2977)">
				<stop  offset="0" style="stop-color:#FFFFFF"/>
				<stop  offset="0" style="stop-color:#0AACD4"/>
				<stop  offset="0.2462" style="stop-color:#00AEE3"/>
				<stop  offset="0.5964" style="stop-color:#018BC7"/>
				<stop  offset="0.7386" style="stop-color:#187CC1"/>
				<stop  offset="0.934" style="stop-color:#4F64AE"/>
			</linearGradient>
			<path class="st19" d="M1286.54,672.12c0,0-17.09-8.2-24.57-14.67s-24.88-14.31-24.88-14.31s-14.32-5.39-20.59-5.54
				c-5.48-0.13-12.3-1.76-17.07,1.56c6.59,1.87,13.31,3.57,19.38,6.83c5.22,2.81,10.32,6.55,15.03,10.16
				c7.53,5.77,14.48,12.45,21.67,18.67l0.11-0.01c11.85,11.72,24.37,21.88,37.8,31.67c6.04,4.41,13.39,7.14,20.92,6.79
				c0.88-0.04,1.76-0.13,2.61-0.35l-0.26,0.8c0.15-0.28,0.29-0.56,0.43-0.84c0.07-0.02,0.14-0.03,0.21-0.05l-0.14-0.08
				c0.02-0.04,0.04-0.07,0.05-0.11c2.6-5.75,5.03-11.62,6.99-17.62c1.22-3.74,1.62-7.68,2.5-11.5c0.68-2.96,1.87-5.8,2.65-8.73"/>
		</g>
		
			<linearGradient id="SVGID_16_" gradientUnits="userSpaceOnUse" x1="1089.1182" y1="842.356" x2="1089.1182" y2="842.356" gradientTransform="matrix(0.9965 -0.0839 0.0839 0.9965 110.2554 -21.2977)">
			<stop  offset="0" style="stop-color:#FFFFFF"/>
			<stop  offset="0" style="stop-color:#00A3D8"/>
			<stop  offset="0.1497" style="stop-color:#0195D9"/>
			<stop  offset="0.3985" style="stop-color:#0182C8"/>
			<stop  offset="0.533" style="stop-color:#0067B1"/>
		</linearGradient>
		<path class="st20" d="M1266.17,726.76"/>
		
			<linearGradient id="SVGID_17_" gradientUnits="userSpaceOnUse" x1="1119.1403" y1="851.037" x2="1052.7877" y2="736.1111" gradientTransform="matrix(0.9965 -0.0839 0.0839 0.9965 110.2554 -21.2977)">
			<stop  offset="0" style="stop-color:#FFFFFF"/>
			<stop  offset="0" style="stop-color:#00A3D8"/>
			<stop  offset="0.1497" style="stop-color:#0195D9"/>
			<stop  offset="0.3274" style="stop-color:#0182C8"/>
			<stop  offset="0.3782" style="stop-color:#017EC5"/>
			<stop  offset="0.533" style="stop-color:#0067B1"/>
		</linearGradient>
		<path class="st21" d="M1295.6,733.02l3.95-2.18l4.26-2.81l3.51-3.1l5.23-5.49l4.86-6.86c0,0-8.13,0.3-9.72-0.04
			c-1.59-0.34-6.79-2.83-6.79-2.83l-7.4-3.47l-7.8-5.81l-12.11-9.65l-11.09-9.71l-6.8-6.49l-8.13-7.1l-12.23-10.45l-8.9-6.6
			l-8.52-5.18l-8.29-3.35l-4.59-1.41l-3.8-1.08l-1.72-0.49c0,0-2.01,2,0.36,4.31c2.37,2.31,10.38,8.12,12.05,10.49
			c1.66,2.37,7.38,8.16,8.57,9.94c1.2,1.78,10.08,14.12,10.08,14.12l7.42,12.43l5.82,9.55l5.98,8.91l5.66,7.96l5.99,6.51l7.31,5.93
			l7.17,4.03l3.86,1.72l5.88,1.12l2.98-0.22L1295.6,733.02z"/>
		
			<linearGradient id="SVGID_18_" gradientUnits="userSpaceOnUse" x1="1165.4656" y1="762.4771" x2="1158.2407" y2="803.4515" gradientTransform="matrix(0.9965 -0.0839 0.0839 0.9965 110.2554 -21.2977)">
			<stop  offset="0" style="stop-color:#FFFFFF"/>
			<stop  offset="0" style="stop-color:#0094D4"/>
			<stop  offset="0.2462" style="stop-color:#0592E5"/>
			<stop  offset="0.5964" style="stop-color:#0274BF"/>
			<stop  offset="0.6269" style="stop-color:#0271BC"/>
			<stop  offset="0.934" style="stop-color:#0E4792"/>
		</linearGradient>
		<path class="st22" d="M1379.1,644.72c0,0-23.04-0.43-26.95-0.78s-18.52-0.98-22.31-1.84c-3.79-0.86-8.17-2.69-12.08-2.87
			s-10.37,1.38-13.91,3.54s-8.15,7.62-9.12,10.24c-0.96,2.62-8.2,19.12-8.2,19.12s9.56,7.14,17.21,7.52s11.28-0.61,15.56-1.99
			s8.87-3.11,10.07-2.88c1.2,0.24,6.57-8.33,8.93-10.39c2.36-2.06,9.09-6.48,12.34-8.12c3.24-1.64,12.3-4.6,16.62-5.47
			c4.32-0.87,9.33-1.63,9.33-1.63S1385.02,646.76,1379.1,644.72z"/>
	</g>
</g>
<path class="st2" d="M7.3,517.59v40.77v0c-82.78,47.13-140.06,131.63-151.64,228.56c-24.18,202.35,141.36,364.56,333.04,348.43
	c56.84-4.78,108.79-24.66,152.25-55.34h23.28h12.29v220.96h-571.86V488.8L7.3,517.59z"/>
<path class="st2" d="M-11.26,964.03c-21.88-27.5-39.04-57.04-46.75-90.63c-12.73-54.36-6.03-110.36,22.4-160.03
	c10.13-17.69,23.65-34.83,38.31-48.9c1.5-1.44,3.04-2.84,4.61-4.21V982.9C0.84,977.01-5.36,970.72-11.26,964.03z"/>
</svg>
