<?xml version="1.0" encoding="utf-8"?>
<!-- Generator: Adobe Illustrator 23.0.2, SVG Export Plug-In . SVG Version: 6.00 Build 0)  -->
<svg version="1.1" id="Capa_1" xmlns="http://www.w3.org/2000/svg" xmlns:xlink="http://www.w3.org/1999/xlink" x="0px" y="0px"
	 viewBox="0 0 841.89 595.28" style="enable-background:new 0 0 841.89 595.28;" xml:space="preserve">
<style type="text/css">
	.st0{fill:#019EE4;}
	.st1{fill:none;stroke:#000000;stroke-miterlimit:10;}
	.st2{fill:url(#SVGID_1_);}
	.st3{fill:none;}
	.st4{fill:url(#SVGID_2_);}
	.st5{fill:url(#SVGID_3_);}
	.st6{fill:url(#SVGID_4_);}
	.st7{fill:url(#SVGID_5_);}
</style>
<g>
	<path class="st0" d="M474.13,142.91c10.57,1.16,23.92,2.51,33.95,6.14c27.34,9.9,50.68,30.62,72.91,48.73
		c1.51,1.23,13.54,11.57,14.19,10.6c6.9-10.22,13.78-20.46,20.67-30.69C567.09,90.07,464.54,36.47,352.8,61.59
		c-89.43,20.1-158.94,91.29-177.41,181.07c-31.55,153.4,84.76,288.28,232.57,288.28c125.47,0,228.22-97.18,237.14-220.37
		c0,0-29.37,22.33-47.08,27.57c-17.71,5.25-41.68,20.08-42.57,22.64c-23.57,70.51-104.01,107.74-173.99,101.18
		c-46.19-4.99-87.39-29.96-116.11-68.67c-14.98-22.47-26.22-46.19-29.96-72.41c-6.24-42.45,2.5-84.89,27.47-121.1
		c8.89-12.9,20.35-25.15,32.49-34.98c5.76-4.67,12.01-8.7,18.49-12.32c10.61-5.93,21.18-12.49,33.02-16.35
		c13.59-4.43,27.57-7.43,41.82-8.62c27.81-2.31,56.13,2.15,81.61,13.61C471.57,141.7,472.86,142.3,474.13,142.91"/>
	<g>
		<path class="st1" d="M544.45,285.25"/>
		<path class="st1" d="M643.77,292.22"/>
		<path class="st1" d="M598.6,323.75"/>
		<linearGradient id="SVGID_1_" gradientUnits="userSpaceOnUse" x1="516.0777" y1="401.4155" x2="573.5366" y2="301.8937">
			<stop  offset="0" style="stop-color:#FFFFFF"/>
			<stop  offset="0" style="stop-color:#0094D4"/>
			<stop  offset="0.3934" style="stop-color:#0684D1"/>
			<stop  offset="0.7284" style="stop-color:#0061AE"/>
			<stop  offset="0.9492" style="stop-color:#0C45A0"/>
		</linearGradient>
		<path class="st2" d="M559.37,304.09c-4.06-4.39-7.33-8.86-10.96-13.6c-1.27-1.66-2.5-3.43-3.7-5.24
			c-1.19,2.6-8.21,18.04-10.63,23.61c-2.65,6.1-7.96,20.95-9.02,24.14c-1.06,3.18-5.57,18.57-5.57,18.57l-4.24,18.57
			c-1.52,9.7-3.85,18.67-1.92,28.54c0.09,0.47,0.2,0.97,0.51,1.34c0.4,0.48,1.07,0.67,1.7,0.67c4.61,0.06,7.24-5.57,9.43-8.8
			l7.43-11.32c0,0,8.66-14.5,8.66-14.5c2.86-4.79,6.4-9.42,10.45-13.39c4.44-4.34,9.66-7.57,14.66-11.19l12.38-8.49
			c0,0,19.98-10.06,20.87-9.36l-0.39-0.27c-0.66,0.07-1.33,0.14-2,0.19c-0.73,0.06-1.43,0.08-2.1,0.08
			c-4.23,0.06-7.52-0.99-11.68-2.65C580.49,319.88,566,311.25,559.37,304.09z"/>
		<g>
			<path class="st3" d="M552.47,224.77"/>
			<linearGradient id="SVGID_2_" gradientUnits="userSpaceOnUse" x1="628.7219" y1="302.1469" x2="527.8693" y2="127.4651">
				<stop  offset="0" style="stop-color:#FFFFFF"/>
				<stop  offset="0" style="stop-color:#0AACD4"/>
				<stop  offset="0.2462" style="stop-color:#00AEE3"/>
				<stop  offset="0.5964" style="stop-color:#018BC7"/>
				<stop  offset="0.7386" style="stop-color:#187CC1"/>
				<stop  offset="0.934" style="stop-color:#4F64AE"/>
			</linearGradient>
			<path class="st4" d="M601.28,224.64c0,0-25.73-15.12-36.6-26.26c-10.87-11.14-37.13-25.73-37.13-25.73s-21.75-10.34-31.56-11.41
				c-8.57-0.93-19.07-4.38-26.97,0.2c10.08,3.8,20.41,7.35,29.49,13.27c7.82,5.09,15.32,11.64,22.23,17.92
				c11.04,10.04,21.06,21.44,31.52,32.14l0.17,0c17.04,19.94,35.34,37.53,55.1,54.66c8.89,7.71,20.06,12.97,31.91,13.41
				c1.39,0.05,2.78,0.03,4.15-0.2l-0.51,1.22c0.26-0.42,0.53-0.84,0.78-1.26c0.11-0.02,0.22-0.03,0.33-0.06l-0.2-0.15
				c0.03-0.05,0.07-0.1,0.1-0.16c4.84-8.68,9.42-17.56,13.29-26.72c2.41-5.71,3.55-11.83,5.44-17.71c1.46-4.55,3.7-8.84,5.3-13.35"
				/>
		</g>
		<linearGradient id="SVGID_3_" gradientUnits="userSpaceOnUse" x1="562.1292" y1="307.6472" x2="562.1292" y2="307.6472">
			<stop  offset="0" style="stop-color:#FFFFFF"/>
			<stop  offset="0" style="stop-color:#00A3D8"/>
			<stop  offset="0.1497" style="stop-color:#0195D9"/>
			<stop  offset="0.3985" style="stop-color:#0182C8"/>
			<stop  offset="0.533" style="stop-color:#0067B1"/>
		</linearGradient>
		<path class="st5" d="M562.13,307.65"/>
		<linearGradient id="SVGID_4_" gradientUnits="userSpaceOnUse" x1="609.383" y1="321.3109" x2="504.9463" y2="140.4212">
			<stop  offset="0" style="stop-color:#FFFFFF"/>
			<stop  offset="0" style="stop-color:#00A3D8"/>
			<stop  offset="0.1497" style="stop-color:#0195D9"/>
			<stop  offset="0.3274" style="stop-color:#0182C8"/>
			<stop  offset="0.3782" style="stop-color:#017EC5"/>
			<stop  offset="0.533" style="stop-color:#0067B1"/>
		</linearGradient>
		<path class="st6" d="M607.45,321.34l6.49-2.89l7.05-3.84l5.91-4.4l8.92-7.92l8.53-10.12c0,0-12.79-0.6-15.24-1.35
			s-10.27-5.34-10.27-5.34l-11.15-6.41l-11.46-10.15l-17.73-16.73l-16.11-16.7l-9.81-11.08l-11.82-12.2l-17.79-18.01l-13.09-11.52
			l-12.69-9.24l-12.56-6.36l-7.01-2.81l-5.82-2.19l-2.64-0.99c0,0-3.41,2.88,0,6.81c3.41,3.94,15.22,14.1,17.51,18.04
			c2.3,3.94,10.49,13.77,12.13,16.73c1.64,2.95,13.94,23.47,13.94,23.47l10,20.48l7.87,15.74l8.2,14.76l7.82,13.24l8.54,11
			l10.68,10.26l10.72,7.27l5.83,3.21l9.08,2.53l4.71,0.04L607.45,321.34z"/>
		<linearGradient id="SVGID_5_" gradientUnits="userSpaceOnUse" x1="682.2975" y1="181.9204" x2="670.9258" y2="246.4129">
			<stop  offset="0" style="stop-color:#FFFFFF"/>
			<stop  offset="0" style="stop-color:#0094D4"/>
			<stop  offset="0.2462" style="stop-color:#0592E5"/>
			<stop  offset="0.5964" style="stop-color:#0274BF"/>
			<stop  offset="0.6269" style="stop-color:#0271BC"/>
			<stop  offset="0.934" style="stop-color:#0E4792"/>
		</linearGradient>
		<path class="st7" d="M750.08,193.87c0,0-36.07-3.71-42.17-4.77c-6.1-1.06-28.91-3.98-34.75-5.84c-5.84-1.86-12.47-5.3-18.57-6.1
			c-6.1-0.8-16.44,0.8-22.28,3.71s-13.79,10.87-15.65,14.85c-1.86,3.98-15.38,28.91-15.38,28.91s14.06,12.47,25.99,14.06
			c11.94,1.59,17.77,0.53,24.67-1.06c6.9-1.59,14.32-3.71,16.18-3.18c1.86,0.53,11.41-12.2,15.38-15.12
			c3.98-2.92,15.12-8.97,20.42-11.11c5.3-2.15,19.89-5.6,26.79-6.39c6.9-0.8,14.85-1.33,14.85-1.33S759.1,197.85,750.08,193.87z"/>
	</g>
</g>
</svg>
