<?xml version="1.0" encoding="utf-8"?>
<!-- Generator: Adobe Illustrator 23.0.2, SVG Export Plug-In . SVG Version: 6.00 Build 0)  -->
<svg version="1.1" id="Capa_1" xmlns="http://www.w3.org/2000/svg" xmlns:xlink="http://www.w3.org/1999/xlink" x="0px" y="0px"
	 viewBox="0 0 1280 1024" style="enable-background:new 0 0 1280 1024;" xml:space="preserve">
<style type="text/css">
	.st0{fill:#03ADDF;}
	.st1{fill:#048CDD;}
	.st2{fill:#D37192;}
	.st3{fill:#E1B295;}
	.st4{fill:#FCCEAC;}
	.st5{fill:#AE7E68;}
</style>
<g>
	<g>
		<circle class="st0" cx="674.47" cy="507.84" r="417.6"/>
		<path class="st1" d="M674.47,925.43V171.44l405.88,237.89c0,0,22.66,67.06,11.72,151.18
			C1073.33,704.45,979.56,901.99,674.47,925.43z"/>
	</g>
	<path class="st2" d="M453.35,864.22c0-15.91,0-31.81,0-47.72c0-37.32-1.54-61.89,21.48-93.56c20.32-27.96,49-50.19,83.62-58.31
		c0,0,109.46,98.34,213.24,0c5.45-5.17,39.23,9.78,44.28,12.14c21.28,9.92,40.64,27.03,48.98,48.94
		c6.71,17.61,5.15,39.03,6.31,57.65c1.87,30.02,3.73,60.04,5.6,90.07C876.85,873.43,670.96,1002.86,453.35,864.22z"/>
	<path d="M534.88,379.3c0,0-25.84-100.71,12.54-139.1c0,0-53.25-100.35,101.29-113.02c0,0,163.13-18.13,140.74,111.95
		c0,0,35.18,60.77,14.93,147.14l-22.39,4.26L656.18,271.12L567.69,398L534.88,379.3z"/>
	<path class="st3" d="M558.04,662.82c20.22-10.89,45.58-26.51,50.74-52.57c4.44-22.45,1.51-48.91,0.32-71.75
		c0,0,28.16,33.36,58.39,33.36c30.23,0,56.48-33.35,56.5-33.36c-2.58,3.16,1.67,27,2.11,32.15c1.11,13.14,2.61,26.37,6.02,39.07
		c6.63,24.66,20.58,47.07,44.76,53.11c-11.33,10.67-23.47,20.55-36.07,29.37c-54.47,38.13-132.02,23.3-177.27-24.34"/>
	<path class="st4" d="M558.45,459.84c0,0,26.02,104.49,106.66,120.48c0,0,83.84-3.2,113.69-120.48c0,0,44.78-35.18,25.59-73.57
		c0,0-9.6-19.19-22.39,4.26c2.41-4.42-0.74-17.19-1.23-21.84c-1.77-16.65-5.19-33.28-10.98-49.01
		c-15.67-42.58-47.99-68.23-94.09-67.48c-30.99,0.51-59.61,2.29-83.14,24.79c-11.89,11.37-20.05,25.97-25.33,41.44
		c-3.5,10.27-5.71,20.95-7.1,31.7c-1.13,8.74-6.35,32.86-1.68,40.41c0,0-18.48-29.85-30.21-1.07
		C528.24,389.47,521.48,454.51,558.45,459.84z"/>
	<polygon class="st5" points="674.47,473.58 694.99,462.91 674.47,464.57 653.94,462.91 	"/>
</g>
</svg>
