<?xml version="1.0" encoding="utf-8"?>
<!-- Generator: Adobe Illustrator 23.0.2, SVG Export Plug-In . SVG Version: 6.00 Build 0)  -->
<svg version="1.1" id="Capa_1" xmlns="http://www.w3.org/2000/svg" xmlns:xlink="http://www.w3.org/1999/xlink" x="0px" y="0px"
	 viewBox="0 0 1280 1024" style="enable-background:new 0 0 1280 1024;" xml:space="preserve">
<style type="text/css">
	.st0{fill:#03ADDF;}
	.st1{fill:#048CDD;}
	.st2{fill:#D37192;}
	.st3{fill:#E1B295;}
	.st4{fill:#FCCEAC;}
	.st5{fill:#AE7E68;}
	.st6{fill:#FFFFFF;stroke:#03ADDF;stroke-width:5;stroke-miterlimit:10;}
</style>
<g>
	<g>
		<circle class="st0" cx="674.5" cy="507.8" r="417.6"/>
		<path class="st1" d="M674.5,925.4v-754l405.9,237.9c0,0,22.7,67.1,11.7,151.2C1073.3,704.5,979.6,902,674.5,925.4z"/>
	</g>
	<path class="st2" d="M453.4,864.2c0-15.9,0-31.8,0-47.7c0-37.3-1.5-61.9,21.5-93.6c20.3-28,49-50.2,83.6-58.3
		c0,0,109.5,98.3,213.2,0c5.5-5.2,39.2,9.8,44.3,12.1c21.3,9.9,40.6,27,49,48.9c6.7,17.6,5.2,39,6.3,57.7c1.9,30,3.7,60,5.6,90.1
		C876.8,873.4,671,1002.9,453.4,864.2z"/>
	<path d="M534.9,379.3c0,0-25.8-100.7,12.5-139.1c0,0-53.3-100.4,101.3-113c0,0,163.1-18.1,140.7,111.9c0,0,35.2,60.8,14.9,147.1
		l-22.4,4.3L656.2,271.1L567.7,398L534.9,379.3z"/>
	<path class="st3" d="M558,662.8c20.2-10.9,45.6-26.5,50.7-52.6c4.4-22.5,1.5-48.9,0.3-71.8c0,0,28.2,33.4,58.4,33.4
		c30.2,0,56.5-33.3,56.5-33.4c-2.6,3.2,1.7,27,2.1,32.2c1.1,13.1,2.6,26.4,6,39.1c6.6,24.7,20.6,47.1,44.8,53.1
		c-11.3,10.7-23.5,20.5-36.1,29.4c-54.5,38.1-132,23.3-177.3-24.3"/>
	<path class="st4" d="M558.5,459.8c0,0,26,104.5,106.7,120.5c0,0,83.8-3.2,113.7-120.5c0,0,44.8-35.2,25.6-73.6
		c0,0-9.6-19.2-22.4,4.3c2.4-4.4-0.7-17.2-1.2-21.8c-1.8-16.6-5.2-33.3-11-49c-15.7-42.6-48-68.2-94.1-67.5
		c-31,0.5-59.6,2.3-83.1,24.8c-11.9,11.4-20,26-25.3,41.4c-3.5,10.3-5.7,21-7.1,31.7c-1.1,8.7-6.3,32.9-1.7,40.4
		c0,0-18.5-29.9-30.2-1.1C528.2,389.5,521.5,454.5,558.5,459.8z"/>
	<polygon class="st5" points="674.5,473.6 695,462.9 674.5,464.6 653.9,462.9 	"/>
</g>
<polygon class="st6" points="1056,507.7 1056,587.1 961.9,587.1 961.9,681.2 882.5,681.2 882.5,587.1 788.3,587.1 788.3,507.7 
	882.5,507.7 882.5,413.5 961.9,413.5 961.9,507.7 "/>
</svg>
