<?xml version="1.0" encoding="utf-8"?>
<!-- Generator: Adobe Illustrator 23.0.2, SVG Export Plug-In . SVG Version: 6.00 Build 0)  -->
<svg version="1.1" id="Capa_1" xmlns="http://www.w3.org/2000/svg" xmlns:xlink="http://www.w3.org/1999/xlink" x="0px" y="0px"
	 viewBox="0 0 1280 1024" style="enable-background:new 0 0 1280 1024;" xml:space="preserve">
<style type="text/css">
	.st0{fill:#03ADDF;}
	.st1{fill:#048CDD;}
	.st2{fill:none;stroke:#000000;stroke-miterlimit:10;}
	.st3{fill:#FFFFFF;}
	.st4{opacity:0.51;}
	.st5{fill:none;stroke:#8C8787;stroke-miterlimit:10;}
	.st6{fill:#2A404D;}
	.st7{fill:#D8E9F5;}
	.st8{stroke:#000000;stroke-miterlimit:10;}
	.st9{fill:#FCCEAC;}
	.st10{fill:#AE7E68;}
	.st11{fill:#BEBFC2;}
	.st12{fill:#57585B;}
	.st13{fill:#A5A7AB;}
	.st14{fill:url(#SVGID_1_);}
	.st15{fill:#B5E4EA;}
	.st16{fill:none;}
	.st17{fill:#FFFFFF;stroke:#03ADDF;stroke-width:5;stroke-miterlimit:10;}
</style>
<g>
	<g>
		<g>
			<circle class="st0" cx="611.07" cy="489.45" r="385.37"/>
		</g>
	</g>
	<path class="st1" d="M615.07,874.82l-10.34-654.69l377.9,164.59C982.63,384.72,1083.71,814.27,615.07,874.82z"/>
	<path class="st2" d="M692.16,537.94"/>
	<path class="st3" d="M340.54,770.21c0,0-13.73-158.2,163.13-161.17L608.4,861.98l111.65-252.94c0,0,176.19-5.66,167.63,158.71
		C887.68,767.75,622.02,1032.15,340.54,770.21z"/>
	<g class="st4">
		<path class="st5" d="M462.17,627.82l-18.77,22.72l28.65,30.63l-19.76,31.62c0,0,107.01,118.04,156.11,149.19"/>
	</g>
	<g class="st4">
		<g>
			<path class="st5" d="M754.63,627.82l18.77,22.72l-28.65,30.63l19.76,31.62c0,0-107.01,118.04-156.11,149.19"/>
		</g>
	</g>
	<path class="st6" d="M675.64,680.6l-61.95-51.34l-63.88,49.16l-43.34-72.72c-1.27,0.99-2.7,1.75-4.2,2.31L608.3,862.3l108.45-247.8
		L675.64,680.6z"/>
	<polygon class="st7" points="502.27,609.04 556.96,695.99 612.21,652.52 667.34,695.99 720.05,609.04 697.17,594.22 613.45,645.11 
		524.64,594.22 	"/>
	<path class="st8" d="M739.72,388.99c39.32-122.87-43.27-191.13-43.27-191.13c-115.6-73.51-188.72,7.35-188.72,7.35
		c-54.34,47.26-34.06,190.08-34.06,190.08s2.89-39.69,15.59-22.5c12.7,17.19,7.96,17.26,7.96,17.26l2.4-91.65
		c0,0-5.9-29.64,27.36-37.29c33.27-7.65,74.38-2.99,74.38-2.99l62.45,0.72c0,0,20.76,8.35,26.81,15.11
		c6.05,6.76,20.89,31.44,20.79,53.03s-0.52,53.57-0.52,53.57s12.65-17.8,17.95-10.24L739.72,388.99z"/>
	<path class="st9" d="M645.2,253.95"/>
	<path class="st9" d="M712.49,341c-0.79,16.7-0.39,33.42-0.15,50.13c-0.12-7.88,1.93-20,6.26-26.64c7.88-12.08,15.6,0.5,18.88,8.77
		c10.55,26.57-0.65,58.44-27.59,70.76c-0.18,0.08-0.36,0.16-0.54,0.24c-0.48,0.21,1.21,27.56,0.89,30.9
		c-1.06,11.18-4.48,21.12-9.66,30.99c-13.09,24.93-28.82,58.57-57.23,68.28c-20.07,6.86-51.44,9.21-69.08-5.12
		c-16.66-13.54-32.62-29.6-45.28-46.95c-14.61-20.03-24.89-44.14-24.13-68.92c0.08-2.49,0.25-5.09-0.75-7.38
		c-1.15-2.64-3.65-4.39-5.92-6.17c-12.66-9.94-20.66-25.18-22.74-41.04c-0.41-3.16,0.49-15.72,2.91-25.61
		c2.43-9.93,6.38-17.15,12.05-9.45c3.59,4.88,6.3,10.41,7.96,16.24c0.8-28.74,1.6-57.49,2.4-86.23c0.53-19.01,6.56-34.2,27.36-35.09
		c37.27,0,74.83-3.19,112.08-4.78h24.4c0,0,40.31-9.56,43.2,25.44"/>
	<polygon class="st10" points="614.09,467.4 636.62,457.04 613.77,457.93 595.8,456.97 	"/>
	<path d="M732.41,729.64l-7.74-2.81c28.39-78.08-24.52-130.73-33.26-138.73H540.14c-41.81,6.64-35.8,95.46-35.73,96.36l-8.21,0.6
		c-0.29-3.99-6.63-97.76,43.02-105.15c0,0,0.61-0.05,0.61-0.05c45.92,0,91.84,0,137.76,0c7.41,0,14.69-1.56,20.91,3.29
		c3.4,2.65,6.54,7.27,9.29,10.62c7.68,9.33,14.28,19.57,19.56,30.44C743.46,657.42,745.01,694.99,732.41,729.64z"/>
	<g>
		<path d="M490.09,700.62c0,0,3.95-34.25,21.08-10.54L490.09,700.62z"/>
		<path d="M489.27,701.8l0.14-1.26c0.08-0.71,2.09-17.38,9.55-19.32c3.71-0.97,8.01,1.87,12.77,8.46l0.47,0.66L489.27,701.8z
			 M500.43,682.41c-0.38,0-0.76,0.05-1.12,0.14c-5.46,1.43-7.73,12.98-8.35,16.87l19.18-9.59
			C506.46,684.9,503.2,682.41,500.43,682.41z"/>
	</g>
	<g>
		<path d="M736.8,744.74c0,0-3.95-34.25-21.08-10.54L736.8,744.74z"/>
		<path d="M737.63,745.93l-22.94-11.47l0.47-0.66c4.76-6.59,9.07-9.43,12.77-8.46c7.46,1.95,9.47,18.61,9.55,19.32L737.63,745.93z
			 M716.76,733.96l19.18,9.59c-0.62-3.9-2.88-15.45-8.35-16.87C724.59,725.89,720.95,728.34,716.76,733.96z"/>
	</g>
	<path class="st11" d="M523.11,864.11l-6.09-5.54c0.23-0.25,8.99-10.1,17.6-26.18c-26.41-11.59-46.14-30.67-56.33-55.3
		c-7.43-17.96-8.79-33.21-4.28-47.99c6.48-21.24,22.82-41.93,43.33-37.2c12.35,2.86,24.51,15.91,30.13,27.32
		c20.68,41.93,11.19,81.62-1.51,108.83c9.82,3.54,20.5,6.06,31.91,7.47l-1.01,8.17c-12.37-1.53-23.96-4.31-34.59-8.22
		C532.98,853.07,523.35,863.85,523.11,864.11z M511.34,699.44c-15.44,0-25.89,20.37-29.46,32.06c-3.92,12.85-2.65,26.34,4.01,42.44
		c9.4,22.72,27.76,40.33,52.43,51.07c12.02-25.54,21.13-62.88,1.76-102.16c-4.65-9.43-14.86-20.68-24.61-22.94
		C514.06,699.6,512.68,699.44,511.34,699.44z"/>
	<circle class="st12" cx="714.53" cy="766.39" r="33.59"/>
	<circle class="st13" cx="715.13" cy="765.79" r="14.48"/>
	<g>
		<ellipse transform="matrix(0.8396 -0.5433 0.5433 0.8396 -382.5663 421.5259)" cx="522.41" cy="858.49" rx="10.88" ry="6.25"/>
		<path d="M517.82,867.77c-2.59,0-4.6-0.92-5.7-2.62c-2.32-3.59,0.38-9.32,6.15-13.05c2.64-1.71,5.52-2.72,8.13-2.86
			c2.86-0.16,5.11,0.77,6.3,2.61c2.32,3.59-0.38,9.32-6.15,13.05c-2.64,1.71-5.52,2.72-8.13,2.86
			C518.22,867.76,518.02,867.77,517.82,867.77z M526.98,851.96c-0.14,0-0.29,0-0.44,0.01c-2.13,0.11-4.54,0.97-6.78,2.42
			c-4.7,3.04-6.58,7.32-5.33,9.26l0,0c0.62,0.96,2.02,1.45,3.85,1.35c2.13-0.11,4.54-0.97,6.78-2.42c4.7-3.04,6.58-7.32,5.33-9.26
			C529.82,852.45,528.59,851.96,526.98,851.96z"/>
	</g>
	<g>
		<ellipse transform="matrix(0.1208 -0.9927 0.9927 0.1208 -323.8645 1318.83)" cx="582.57" cy="842.24" rx="6.25" ry="10.88"/>
		<path d="M573.1,846.42c-1.99-1.66-2.94-3.65-2.69-5.66l0,0c0.52-4.24,6.26-6.92,13.08-6.09c6.81,0.83,11.76,4.8,11.24,9.04
			c-0.52,4.24-6.26,6.92-13.08,6.09c-3.12-0.38-5.99-1.45-8.07-3.01C573.42,846.68,573.26,846.55,573.1,846.42z M590.24,840.15
			c-1.54-1.29-4.01-2.38-7.08-2.75c-5.56-0.68-9.75,1.4-10.03,3.69l0,0c-0.14,1.13,0.63,2.42,2.09,3.51
			c1.71,1.28,4.11,2.16,6.76,2.48c5.56,0.68,9.75-1.4,10.03-3.69C592.13,842.37,591.49,841.19,590.24,840.15z"/>
	</g>
	<linearGradient id="SVGID_1_" gradientUnits="userSpaceOnUse" x1="571.8167" y1="643.9049" x2="627.8184" y2="529.5334">
		<stop  offset="0" style="stop-color:#FCCEAC"/>
		<stop  offset="0.6676" style="stop-color:#E1B295"/>
	</linearGradient>
	<path class="st14" d="M533.47,599.25v-71.01c0,0,78.15,112.44,155.19,0v71.01l-38.43,26.96l-36.41,23.84L533.47,599.25z"/>
	<path class="st11" d="M478.08,750.81l-6.29-4.99c0.3-0.41,30.33-40.57,77.91-19.39l-3.11,7.57
		C504.77,715.38,479.15,749.36,478.08,750.81z"/>
	<path class="st15" d="M729.6,241.66"/>
	<line class="st16" x1="505.2" y1="608.66" x2="508.28" y2="605.29"/>
</g>
<polygon class="st17" points="979.42,454.86 979.42,528.96 891.56,528.96 891.56,616.82 817.46,616.82 817.46,528.96 729.6,528.96 
	729.6,454.86 817.46,454.86 817.46,367 891.56,367 891.56,454.86 "/>
</svg>
