<?xml version="1.0" encoding="utf-8"?>
<!-- Generator: Adobe Illustrator 23.0.2, SVG Export Plug-In . SVG Version: 6.00 Build 0)  -->
<svg version="1.1" id="Capa_1" xmlns="http://www.w3.org/2000/svg" xmlns:xlink="http://www.w3.org/1999/xlink" x="0px" y="0px"
	 viewBox="0 0 1280 1024" style="enable-background:new 0 0 1280 1024;" xml:space="preserve">
<style type="text/css">
	.st0{fill:#03ADDF;}
	.st1{fill:#048CDD;}
	.st2{fill:none;stroke:#000000;stroke-miterlimit:10;}
	.st3{fill:#FFFFFF;}
	.st4{opacity:0.51;}
	.st5{fill:none;stroke:#8C8787;stroke-miterlimit:10;}
	.st6{fill:#2A404D;}
	.st7{fill:#D8E9F5;}
	.st8{stroke:#000000;stroke-miterlimit:10;}
	.st9{fill:#FCCEAC;}
	.st10{fill:#AE7E68;}
	.st11{fill:#BEBFC2;}
	.st12{fill:#57585B;}
	.st13{fill:#A5A7AB;}
	.st14{fill:url(#SVGID_1_);}
	.st15{fill:#B5E4EA;}
	.st16{fill:none;}
	.st17{fill:#FFFFFF;stroke:#00B8EB;stroke-width:3;stroke-miterlimit:10;}
	.st18{font-family:'FranklinGothic-Heavy';}
	.st19{font-size:275.4661px;}
	.st20{font-size:275.47px;}
</style>
<g>
	<g>
		<g>
			<circle class="st0" cx="618.3" cy="491.6" r="385.4"/>
		</g>
	</g>
	<path class="st1" d="M622.3,876.9l-10.3-654.7l377.9,164.6C989.8,386.8,1090.9,816.4,622.3,876.9z"/>
	<path class="st2" d="M699.4,540"/>
	<path class="st3" d="M347.8,772.3c0,0-13.7-158.2,163.1-161.2l104.7,252.9l111.7-252.9c0,0,176.2-5.7,167.6,158.7
		C894.9,769.9,629.2,1034.3,347.8,772.3z"/>
	<g class="st4">
		<path class="st5" d="M469.4,629.9l-18.8,22.7l28.6,30.6l-19.8,31.6c0,0,107,118,156.1,149.2"/>
	</g>
	<g class="st4">
		<g>
			<path class="st5" d="M761.8,629.9l18.8,22.7L752,683.3l19.8,31.6c0,0-107,118-156.1,149.2"/>
		</g>
	</g>
	<path class="st6" d="M682.9,682.7l-62-51.3L557,680.5l-43.3-72.7c-1.3,1-2.7,1.8-4.2,2.3l106,254.3L724,616.6L682.9,682.7z"/>
	<polygon class="st7" points="509.5,611.1 564.2,698.1 619.4,654.6 674.6,698.1 727.3,611.1 704.4,596.3 620.7,647.2 531.9,596.3 	
		"/>
	<path class="st8" d="M746.9,391.1C786.3,268.2,703.7,200,703.7,200c-115.6-73.5-188.7,7.4-188.7,7.4
		c-54.3,47.3-34.1,190.1-34.1,190.1s2.9-39.7,15.6-22.5c12.7,17.2,8,17.3,8,17.3l2.4-91.6c0,0-5.9-29.6,27.4-37.3
		c33.3-7.7,74.4-3,74.4-3l62.5,0.7c0,0,20.8,8.4,26.8,15.1c6,6.8,20.9,31.4,20.8,53s-0.5,53.6-0.5,53.6s12.7-17.8,18-10.2
		L746.9,391.1z"/>
	<path class="st9" d="M652.4,256.1"/>
	<path class="st9" d="M719.7,343.1c-0.8,16.7-0.4,33.4-0.2,50.1c-0.1-7.9,1.9-20,6.3-26.6c7.9-12.1,15.6,0.5,18.9,8.8
		c10.5,26.6-0.7,58.4-27.6,70.8c-0.2,0.1-0.4,0.2-0.5,0.2c-0.5,0.2,1.2,27.6,0.9,30.9c-1.1,11.2-4.5,21.1-9.7,31
		c-13.1,24.9-28.8,58.6-57.2,68.3c-20.1,6.9-51.4,9.2-69.1-5.1c-16.7-13.5-32.6-29.6-45.3-47c-14.6-20-24.9-44.1-24.1-68.9
		c0.1-2.5,0.3-5.1-0.7-7.4c-1.1-2.6-3.6-4.4-5.9-6.2c-12.7-9.9-20.7-25.2-22.7-41c-0.4-3.2,0.5-15.7,2.9-25.6
		c2.4-9.9,6.4-17.1,12-9.5c3.6,4.9,6.3,10.4,8,16.2c0.8-28.7,1.6-57.5,2.4-86.2c0.5-19,6.6-34.2,27.4-35.1
		c37.3,0,74.8-3.2,112.1-4.8h24.4c0,0,40.3-9.6,43.2,25.4"/>
	<polygon class="st10" points="621.3,469.5 643.8,459.1 621,460 603,459.1 	"/>
	<path d="M739.6,731.7l-7.7-2.8c28.4-78.1-24.5-130.7-33.3-138.7H547.4c-41.8,6.6-35.8,95.5-35.7,96.4l-8.2,0.6
		c-0.3-4-6.6-97.8,43-105.2l0.6,0c45.9,0,91.8,0,137.8,0c7.4,0,14.7-1.6,20.9,3.3c3.4,2.7,6.5,7.3,9.3,10.6
		c7.7,9.3,14.3,19.6,19.6,30.4C750.7,659.5,752.2,697.1,739.6,731.7z"/>
	<g>
		<path d="M497.3,702.7c0,0,4-34.3,21.1-10.5L497.3,702.7z"/>
		<path d="M496.5,703.9l0.1-1.3c0.1-0.7,2.1-17.4,9.5-19.3c3.7-1,8,1.9,12.8,8.5l0.5,0.7L496.5,703.9z M507.6,684.5
			c-0.4,0-0.8,0-1.1,0.1c-5.5,1.4-7.7,13-8.4,16.9l19.2-9.6C513.7,687,510.4,684.5,507.6,684.5z"/>
	</g>
	<g>
		<path d="M744,746.8c0,0-4-34.3-21.1-10.5L744,746.8z"/>
		<path d="M744.8,748l-22.9-11.5l0.5-0.7c4.8-6.6,9.1-9.4,12.8-8.5c7.5,2,9.5,18.6,9.5,19.3L744.8,748z M724,736.1l19.2,9.6
			c-0.6-3.9-2.9-15.5-8.3-16.9C731.8,728,728.2,730.4,724,736.1z"/>
	</g>
	<path class="st11" d="M530.3,866.2l-6.1-5.5c0.2-0.3,9-10.1,17.6-26.2c-26.4-11.6-46.1-30.7-56.3-55.3c-7.4-18-8.8-33.2-4.3-48
		c6.5-21.2,22.8-41.9,43.3-37.2c12.3,2.9,24.5,15.9,30.1,27.3c20.7,41.9,11.2,81.6-1.5,108.8c9.8,3.5,20.5,6.1,31.9,7.5l-1,8.2
		c-12.4-1.5-24-4.3-34.6-8.2C540.2,855.2,530.6,866,530.3,866.2z M518.6,701.5c-15.4,0-25.9,20.4-29.5,32.1
		c-3.9,12.8-2.6,26.3,4,42.4c9.4,22.7,27.8,40.3,52.4,51.1c12-25.5,21.1-62.9,1.8-102.2c-4.7-9.4-14.9-20.7-24.6-22.9
		C521.3,701.7,519.9,701.5,518.6,701.5z"/>
	<circle class="st12" cx="721.7" cy="768.5" r="33.6"/>
	<circle class="st13" cx="722.3" cy="767.9" r="14.5"/>
	<g>
		<ellipse transform="matrix(0.8396 -0.5433 0.5433 0.8396 -382.5535 425.8407)" cx="529.7" cy="860.6" rx="10.9" ry="6.3"/>
		<path d="M525,869.9c-2.6,0-4.6-0.9-5.7-2.6c-2.3-3.6,0.4-9.3,6.2-13c2.6-1.7,5.5-2.7,8.1-2.9c2.9-0.2,5.1,0.8,6.3,2.6
			c2.3,3.6-0.4,9.3-6.2,13c-2.6,1.7-5.5,2.7-8.1,2.9C525.4,869.9,525.2,869.9,525,869.9z M534.2,854.1c-0.1,0-0.3,0-0.4,0
			c-2.1,0.1-4.5,1-6.8,2.4c-4.7,3-6.6,7.3-5.3,9.3l0,0c0.6,1,2,1.5,3.8,1.3c2.1-0.1,4.5-1,6.8-2.4c4.7-3,6.6-7.3,5.3-9.3
			C537,854.6,535.8,854.1,534.2,854.1z"/>
	</g>
	<g>
		<ellipse transform="matrix(0.1208 -0.9927 0.9927 0.1208 -319.6076 1327.8687)" cx="589.8" cy="844.4" rx="6.3" ry="10.9"/>
		<path d="M580.3,848.5c-2-1.7-2.9-3.7-2.7-5.7l0,0c0.5-4.2,6.3-6.9,13.1-6.1c6.8,0.8,11.8,4.8,11.2,9s-6.3,6.9-13.1,6.1
			c-3.1-0.4-6-1.5-8.1-3C580.6,848.8,580.5,848.7,580.3,848.5z M597.5,842.3c-1.5-1.3-4-2.4-7.1-2.8c-5.6-0.7-9.8,1.4-10,3.7l0,0
			c-0.1,1.1,0.6,2.4,2.1,3.5c1.7,1.3,4.1,2.2,6.8,2.5c5.6,0.7,9.8-1.4,10-3.7C599.3,844.5,598.7,843.3,597.5,842.3z"/>
	</g>
	
		<linearGradient id="SVGID_1_" gradientUnits="userSpaceOnUse" x1="579.035" y1="375.8777" x2="635.0367" y2="490.2492" gradientTransform="matrix(1 0 0 -1 0 1021.8898)">
		<stop  offset="0" style="stop-color:#FCCEAC"/>
		<stop  offset="0.6676" style="stop-color:#E1B295"/>
	</linearGradient>
	<path class="st14" d="M540.7,601.4v-71c0,0,78.2,112.4,155.2,0v71l-38.4,27L621,652.2L540.7,601.4z"/>
	<path class="st11" d="M485.3,752.9l-6.3-5c0.3-0.4,30.3-40.6,77.9-19.4l-3.1,7.6C512,717.5,486.4,751.5,485.3,752.9z"/>
	<path class="st15" d="M736.8,243.8"/>
	<line class="st16" x1="512.4" y1="610.8" x2="515.5" y2="607.4"/>
</g>
<text transform="matrix(1 0 0 1 742.4902 519.4889)" class="st17 st18 st19">O</text>
<text transform="matrix(1 0 0 1 819 650.1398)" class="st17 st18 st20">S</text>
</svg>
