<?xml version="1.0" encoding="utf-8"?>
<!-- Generator: Adobe Illustrator 23.0.2, SVG Export Plug-In . SVG Version: 6.00 Build 0)  -->
<svg version="1.1" id="Capa_1" xmlns="http://www.w3.org/2000/svg" xmlns:xlink="http://www.w3.org/1999/xlink" x="0px" y="0px"
	 viewBox="0 0 1280 1024" style="enable-background:new 0 0 1280 1024;" xml:space="preserve">
<style type="text/css">
	.st0{fill:#03ADDF;}
	.st1{fill:#048CDD;}
	.st2{fill:#FFFFFF;stroke:#FFFFFF;stroke-miterlimit:10;}
	.st3{fill:none;stroke:#000000;stroke-miterlimit:10;}
	.st4{stroke:#000000;stroke-miterlimit:10;}
	.st5{fill:#E1B295;}
	.st6{fill:#FCCEAC;}
	.st7{fill:#FFFFFF;}
	.st8{fill:none;stroke:#000000;stroke-width:3;stroke-miterlimit:10;}
	.st9{fill:#AE7E68;}
	.st10{fill:#FFFFFF;stroke:#03ADDF;stroke-width:5;stroke-miterlimit:10;}
</style>
<g>
	<g>
		<circle class="st0" cx="665.6" cy="532.3" r="417.8"/>
	</g>
	<path class="st1" d="M665.6,950.1V194l416.3,302.6c0,0,6.9,41.4-3.6,101.1C1054.7,731.6,960.2,950.1,665.6,950.1z"/>
	<path class="st2" d="M358.7,855.3c0,0,9.9-204.8,214.1-223.8s167.8-6.3,167.8-6.3S944.6,613.1,985,852.6
		C985,852.6,709.6,1131.3,358.7,855.3z"/>
	<path class="st3" d="M794.7,464.6c0,0-23.3,94.9-118.3,97.2"/>
	<path class="st4" d="M498.4,660.8c0,0-87.4-456.4,175.4-466.8c0,0,132.9-2.6,167,176.9c0,0,6.8,225.4-18.7,280.5"/>
	<path class="st5" d="M593.7,572.4l-4.6,57.6l74.1,63.4l87.8-62.9l-5.3-58.1C745.6,572.4,683.9,655.6,593.7,572.4z"/>
	<path class="st6" d="M722.3,311.8c0,0-39.6,30.1-91.8,43.5c0,0-82.3,24.5-92.6,69.6c0,0-15.9,77.9,43.5,139.3
		c43.1,44.5,112.4,69.4,158.4,15.7c20.8-24.3,46.3-53.3,51.3-86.1c3-19.5,5.4-39.4,3.3-59.1c-2.1-20.4-10.7-34.5-22.1-50.9
		C755.6,359.8,738.5,336.1,722.3,311.8z"/>
	<polygon class="st7" points="869.7,811.9 470,811.9 444.9,665 892.8,665 	"/>
	<path class="st2" d="M838.6,649.3l-117.4,2.5l29-21.3c40.7-2.7,73.8,9.7,73.8,9.7"/>
	<path class="st7" d="M492.1,651.8c0,0,34.3-25.1,96.9-21.8l22.4,19.1L492.1,651.8z"/>
	<path class="st7" d="M958.5,683.7"/>
	<path class="st4" d="M883.9,828H456.3l-27.4-176.2h479L883.9,828z M467.6,814.8h404.8L892.8,665H444.3L467.6,814.8z"/>
	<polygon points="906.9,845.2 893.7,845.2 893.7,834.3 443.2,834.3 443.2,845.2 430,845.2 430,821.2 906.9,821.2 	"/>
	<g>
		<path class="st8" d="M805.5,446.8c0,0-22.6,100.9-117.5,99.7"/>
		<circle cx="677.3" cy="548.4" r="14.3"/>
	</g>
	<polygon class="st9" points="676.4,511.6 701.7,496.7 676.4,500 651.1,496.7 	"/>
</g>
<polygon class="st10" points="1055.5,517 1055.5,582.2 978.2,582.2 978.2,659.6 913,659.6 913,582.2 835.6,582.2 835.6,517 913,517 
	913,439.7 978.2,439.7 978.2,517 "/>
</svg>
