<?xml version="1.0" encoding="utf-8"?>
<!-- Generator: Adobe Illustrator 23.0.2, SVG Export Plug-In . SVG Version: 6.00 Build 0)  -->
<svg version="1.1" id="Capa_1" xmlns="http://www.w3.org/2000/svg" xmlns:xlink="http://www.w3.org/1999/xlink" x="0px" y="0px"
	 viewBox="0 0 1280 1024" style="enable-background:new 0 0 1280 1024;" xml:space="preserve">
<style type="text/css">
	.st0{fill:#03ADDF;}
	.st1{fill:#048CDD;}
	.st2{fill:#FFFFFF;stroke:#FFFFFF;stroke-miterlimit:10;}
	.st3{fill:none;stroke:#000000;stroke-miterlimit:10;}
	.st4{stroke:#000000;stroke-miterlimit:10;}
	.st5{fill:#E1B295;}
	.st6{fill:#FCCEAC;}
	.st7{fill:#FFFFFF;}
	.st8{fill:none;stroke:#000000;stroke-width:3;stroke-miterlimit:10;}
	.st9{fill:#AE7E68;}
</style>
<g>
	<g>
		<circle class="st0" cx="665.59" cy="532.34" r="417.76"/>
	</g>
	<path class="st1" d="M665.59,950.1V194.05l416.25,302.64c0,0,6.91,41.42-3.6,101.09C1054.69,731.59,960.22,950.1,665.59,950.1z"/>
	<path class="st2" d="M358.65,855.3c0,0,9.9-204.81,214.07-223.8s167.77-6.33,167.77-6.33s204.09-12.06,244.49,227.42
		C984.98,852.58,709.6,1131.33,358.65,855.3z"/>
	<path class="st3" d="M794.65,464.61c0,0-23.3,94.87-118.26,97.25"/>
	<path class="st4" d="M498.39,660.82c0,0-87.35-456.42,175.37-466.77c0,0,132.95-2.59,166.97,176.88c0,0,6.83,225.42-18.75,280.53"
		/>
	<path class="st5" d="M593.69,572.41L589.06,630l74.07,63.42l87.84-62.91l-5.34-58.1C745.63,572.41,683.91,655.57,593.69,572.41z"/>
	<path class="st6" d="M722.29,311.79c0,0-39.57,30.07-91.8,43.52c0,0-82.3,24.53-92.59,69.64c0,0-15.92,77.92,43.52,139.28
		c43.09,44.48,112.44,69.39,158.39,15.69c20.8-24.3,46.33-53.34,51.32-86.12c2.97-19.48,5.38-39.44,3.3-59.15
		c-2.14-20.36-10.71-34.53-22.1-50.88C755.64,359.81,738.49,336.1,722.29,311.79z"/>
	<polygon class="st7" points="869.71,811.89 469.98,811.89 444.9,665 892.79,665 	"/>
	<path class="st2" d="M838.62,649.27l-117.38,2.54l29.01-21.3c40.72-2.74,73.83,9.73,73.83,9.73"/>
	<path class="st7" d="M492.14,651.81c0,0,34.32-25.06,96.92-21.81l22.36,19.14L492.14,651.81z"/>
	<path class="st7" d="M958.5,683.7"/>
	<path class="st4" d="M883.94,828.01H456.28l-27.37-176.21h478.98L883.94,828.01z M467.58,814.82h404.84L892.79,665H444.31
		L467.58,814.82z"/>
	<polygon points="906.93,845.16 893.74,845.16 893.74,834.35 443.21,834.35 443.21,845.16 430.02,845.16 430.02,821.16 
		906.93,821.16 	"/>
	<g>
		<path class="st8" d="M805.46,446.83c0,0-22.55,100.9-117.52,99.71"/>
		<circle cx="677.29" cy="548.36" r="14.27"/>
	</g>
	<polygon class="st9" points="676.39,511.55 701.71,496.69 676.39,499.99 651.07,496.69 	"/>
</g>
</svg>
